PathFileType	4	(X/Y/Z)	C:/Users/beibeiliu/ov580/test_trc/User2\sequence.14_training_dense_left.trc
DataRate	CameraRate	NumFrames	NumMarkers	Units	OrigDataRate	OrigDataStartFrame	OrigNumFrames
120	120	10	19	mm	120	158	420
Frame#	Time	ThumbCMC			ThumbMCP			ThumbIP			ThumbTip			IndexMCP			IndexPIP			IndexTip			MiddleMCP			MiddlePIP			MiddleTip			RingMCP			RingPIP			RingTip			PinkyMCP			PinkyPIP			PinkyTip			BackHand1			BackHand2			BackHand3	
		X0	Y0	Z0	X1	Y1	Z1	X2	Y2	Z2	X3	Y3	Z3	X4	Y4	Z4	X5	Y5	Z5	X6	Y6	Z6	X7	Y7	Z7	X8	Y8	Z8	X9	Y9	Z9	X10	Y10	Z10	X11	Y11	Z11	X12	Y12	Z12	X13	Y13	Z13	X14	Y14	Z14	X15	Y15	Z15	X16	Y16	Z16	X17	Y17	Z17	X18	Y18	Z18	
157	1.30833	-118.583	41.4562	82.601	-111.748	27.521	47.8681	-115.768	19.9595	8.78984	-138.607	12.3705	-8.19098	-156.032	92.3155	27.0913	-159.653	102.247	1.66167	-162.324	111.695	-27.5548	-177.969	68.3605	12.3582	-160.463	48.0937	-17.0354	-141.96	16.3056	4.70153	-192.364	49.0021	10.5813	-174.491	33.9304	-11.5193	-151.578	9.17746	4.52909	-209.973	40.3557	31.8221	-217.01	47.8947	11.2678	-227.584	59.9526	-6.80963	-194.732	45.8503	73.8395	-188.62	35.9675	107.199	-158.527	61.9988	93.1936	
158	1.31667	-121.824	33.4512	75.0763	-112.962	15.5639	40.5355	-120.914	1.20743	11.8705	-141.027	-9.41625	-6.18657	-160.218	75.0273	13.603	-163.13	82.141	-12.7902	-168.811	86.7941	-38.7078	-178.216	50.2327	0.583035	-166.938	25.7041	-20.2237	-147.865	-2.14885	3.69534	-194.478	30.531	4.17989	-177.869	10.6604	-12.4595	-157.02	-11.0884	4.85844	-213.705	25.8919	29.8162	-222.537	26.5886	10.5105	-235.188	36.5896	-10.4951	-192.036	37.9688	73.6813	-188.248	34.3984	105.924	-159.029	57.7362	84.5462	
159	1.325	-119.335	25.9278	74.6282	-113.558	3.61299	39.4081	-124.631	-14.7515	10.1545	-147.306	-26.9916	-1.62899	-156.472	58.0373	8.07814	-163.738	62.6122	-23.4563	-171.449	61.662	-45.3086	-181.132	32.1427	1.4963	-169.541	0.326285	-17.3014	-148.071	-18.5245	11.119	-196.123	13.6187	7.7487	-179.121	-8.97659	-9.27714	-156.896	-26.1766	13.1675	-212.235	14.8947	31.1607	-221.398	13.9824	8.80516	-233.324	20.8953	-8.01541	-193.354	33.402	71.9774	-187.594	34.5398	102.426	-160.607	50.7416	77.9594	
160	1.33333	-119.901	19.0847	76.2661	-113.487	-6.61468	45.4796	-123.891	-30.4286	17.3863	-151.526	-42.6432	5.45437	-159.809	42.5289	3.11396	-162.234	43.215	-23.2265	-170.016	42.7314	-51.6915	-177.666	16.3445	-1.4476	-166.803	-16.4134	-12.4292	-147.789	-32.132	21.8936	-193.692	2.28988	11.4056	-180.592	-30.0744	-1.02025	-159.139	-40.6885	21.2582	-212.745	2.90854	35.7088	-226.253	1.56273	9.43985	-235.213	7.06879	-11.2344	-189.544	29.5685	66.3882	-181.43	33.0681	100.902	-155.602	47.4271	76.7136	
161	1.34167	-118.486	14.6444	77.7595	-109.57	-16.7608	50.1603	-124.376	-41.5116	26.451	-149.083	-54.7597	15.8255	-153.374	30.5252	3.99508	-157.501	28.2021	-21.8418	-168.424	23.2225	-50.8021	-176.436	4.17963	5.50917	-167.117	-30.8842	-5.28366	-147.278	-43.957	27.9473	-193.164	-11.0221	13.079	-177.638	-37.6167	4.64902	-156.252	-50.2966	33.1855	-209.789	-4.86412	40.5663	-219.646	-8.24108	15.8625	-234.765	-8.42506	-3.74808	-189.016	22.3119	67.8444	-184.921	29.1785	100.394	-157.817	40.3601	74.6849	
162	1.35	-116.923	11.0801	80.6703	-108.103	-22.2354	56.8428	-116.884	-50.0197	36.9621	-142.487	-62.1391	28.0332	-148.79	21.6589	5.32698	-156.483	14.2706	-23.717	-162.542	9.56956	-49.1676	-171.557	-6.24664	5.2826	-157.11	-41.5393	0.208533	-140.158	-50.9717	33.7012	-185.493	-19.6434	14.8712	-174.909	-47.1656	11.9046	-153.573	-57.2316	38.3209	-207.911	-9.40954	40.6735	-219.56	-16.4548	19.3657	-231.307	-17.1861	-4.93299	-186.07	18.832	71.2288	-181.704	28.96	100.192	-150.014	38.928	76.7151	
163	1.35833	-111.746	8.9703	85.3484	-102.802	-23.2756	67.9205	-113.126	-54.5465	42.7878	-135.371	-67.9103	35.6924	-141.883	14.9357	8.70633	-146.718	7.33176	-19.6498	-150.427	0.423142	-43.0487	-161.876	-10.617	8.65866	-153.619	-44.8105	5.0826	-133.85	-55.0661	38.058	-179.996	-21.5649	20.8098	-167.082	-49.7382	13.5763	-144.344	-58.4307	43.2398	-198.527	-13.5952	42.3822	-209.11	-19.8371	18.9299	-219.029	-23.9853	-1.03878	-183.125	17.7406	72.8991	-176.567	29.3785	103.175	-146.061	36.1207	80.5577	
164	1.36667	-110.772	8.05933	92.2703	-98.7747	-24.4519	76.3854	-108.221	-53.0568	53.4739	-127.296	-69.1592	40.6605	-131.272	13.0493	11.2935	-131.548	5.41376	-14.9776	-134.794	-5.46355	-37.6456	-150.437	-10.5701	12.9015	-140.677	-47.8417	10.1863	-127.611	-55.7533	48.1518	-169.958	-24.0455	21.3638	-159.013	-54.3217	17.7051	-138.704	-59.9516	45.8671	-193.149	-17.2903	43.7292	-197.861	-23.0305	15.3203	-204.981	-25.7696	-8.17803	-178.225	13.7666	74.1021	-179.407	26.9898	106.007	-144.782	34.8159	80.1348	
165	1.375	-107.253	9.5215	98.2272	-96.2484	-22.2443	82.5496	-100.849	-52.1971	58.2522	-120.727	-66.4616	45.6287	-121.05	13.9687	19.6357	-120.927	2.40787	-10.5034	-120.894	-7.40978	-34.1449	-141.817	-13.2681	15.1859	-127.281	-48.9398	15.2052	-116.376	-53.9205	51.9286	-156.506	-23.6027	20.8032	-143.254	-54.0629	20.0593	-129.597	-58.8798	50.7752	-182.585	-17.4037	38.3587	-190.127	-26.4275	16.9861	-190.269	-30.4035	-7.23722	-176.236	14.5416	72.6722	-176.798	27.5021	100.971	-145.728	34.616	83.6545	
166	1.38333	-104.643	11.4056	104.42	-89.169	-20.1511	87.5345	-89.7279	-48.4792	60.5596	-113.258	-59.907	47.5732	-112.235	17.7846	24.9165	-107.101	9.35364	-5.25657	-100.624	2.65454	-32.3583	-129.098	-8.43919	14.2921	-115.001	-42.5557	16.3553	-110.995	-49.8122	55.6831	-151.731	-20.2832	20.8623	-133.2	-47.2086	18.7424	-125.527	-56.6104	51.9001	-177.555	-16.553	34.4544	-175.118	-22.6611	9.11375	-179.617	-26.4315	-12.3786	-172.693	15.5574	72.1598	-174.68	27.0753	102.639	-138.177	35.8948	86.1273	
